{"asset":{"version":"2.0","generator":"Unity 6000.2.6f2 glTFast 6.14.1"},"nodes":[{"name":"Body","mesh":0},{"name":"Spoiler","mesh":1,"translation":[0,1.05246007,-2.31334925]},{"name":"FrontLeftWheel","mesh":2,"translation":[0.8465933,0.3695242,1.47955263]},{"name":"FrontRightWheel","mesh":3,"translation":[-0.846593,0.3695242,1.47955]},{"name":"RearLeftWheel","mesh":4,"translation":[0.8465933,0.3695242,-1.38107]},{"name":"RearRightWheel","mesh":5,"translation":[-0.846593,0.3695242,-1.38107]},{"name":"Meshes","children":[2,3,4,5]},{"name":"FrontLeftWheel","translation":[0.8465933,0.3695242,1.47955263]},{"name":"FrontRightWheel","translation":[-0.846593,0.3695242,1.47955]},{"name":"RearLeftWheel","translation":[0.8465933,0.3695242,-1.38107]},{"name":"RearRightWheel","translation":[-0.846593,0.3695242,-1.38107]},{"name":"Colliders","children":[7,8,9,10]},{"name":"Wheels","children":[6,11]},{"name":"Free Racing Car","children":[0,1,12],"translation":[12.537014,6.902251,-28.4025326]}],"buffers":[{"uri":"RacingCar2.bin","byteLength":414468}],"bufferViews":[{"buffer":0,"byteLength":19224,"target":34963},{"buffer":0,"byteLength":972,"byteOffset":19224,"target":34963},{"buffer":0,"byteLength":3480,"byteOffset":20196,"target":34963},{"buffer":0,"byteLength":3480,"byteOffset":23676,"target":34963},{"buffer":0,"byteLength":3480,"byteOffset":27156,"target":34963},{"buffer":0,"byteLength":3480,"byteOffset":30636,"target":34963},{"buffer":0,"byteLength":177408,"byteOffset":34116,"byteStride":48,"target":34962},{"buffer":0,"byteLength":9408,"byteOffset":211524,"byteStride":48,"target":34962},{"buffer":0,"byteLength":48384,"byteOffset":220932,"byteStride":48,"target":34962},{"buffer":0,"byteLength":48384,"byteOffset":269316,"byteStride":48,"target":34962},{"buffer":0,"byteLength":48384,"byteOffset":317700,"byteStride":48,"target":34962},{"buffer":0,"byteLength":48384,"byteOffset":366084,"byteStride":48,"target":34962}],"accessors":[{"bufferView":6,"componentType":5126,"count":3696,"type":"VEC3","max":[1.02971768,1.40094233,2.39131212],"min":[-1.02971768,0.172039747,-2.42926645]},{"bufferView":6,"componentType":5126,"count":3696,"type":"VEC3","byteOffset":12},{"bufferView":6,"componentType":5126,"count":3696,"type":"VEC4","byteOffset":24},{"bufferView":6,"componentType":5126,"count":3696,"type":"VEC2","byteOffset":40},{"bufferView":0,"componentType":5123,"count":9126,"type":"SCALAR"},{"bufferView":0,"componentType":5123,"count":486,"type":"SCALAR","byteOffset":18252},{"bufferView":7,"componentType":5126,"count":196,"type":"VEC3","max":[0.8109134,0.0516534969,0.324956954],"min":[-0.8109134,-0.0514025241,-0.06730437]},{"bufferView":7,"componentType":5126,"count":196,"type":"VEC3","byteOffset":12},{"bufferView":7,"componentType":5126,"count":196,"type":"VEC4","byteOffset":24},{"bufferView":7,"componentType":5126,"count":196,"type":"VEC2","byteOffset":40},{"bufferView":1,"componentType":5123,"count":486,"type":"SCALAR"},{"bufferView":8,"componentType":5126,"count":1008,"type":"VEC3","max":[0.148270428,0.37067607,0.37067607],"min":[-0.132642269,-0.37067607,-0.37067607]},{"bufferView":8,"componentType":5126,"count":1008,"type":"VEC3","byteOffset":12},{"bufferView":8,"componentType":5126,"count":1008,"type":"VEC4","byteOffset":24},{"bufferView":8,"componentType":5126,"count":1008,"type":"VEC2","byteOffset":40},{"bufferView":2,"componentType":5123,"count":1740,"type":"SCALAR"},{"bufferView":9,"componentType":5126,"count":1008,"type":"VEC3","max":[0.132642359,0.37067607,0.3706761],"min":[-0.148270518,-0.37067607,-0.3706761]},{"bufferView":9,"componentType":5126,"count":1008,"type":"VEC3","byteOffset":12},{"bufferView":9,"componentType":5126,"count":1008,"type":"VEC4","byteOffset":24},{"bufferView":9,"componentType":5126,"count":1008,"type":"VEC2","byteOffset":40},{"bufferView":3,"componentType":5123,"count":1740,"type":"SCALAR"},{"bufferView":10,"componentType":5126,"count":1008,"type":"VEC3","max":[0.148270428,0.37067607,0.37067607],"min":[-0.132642269,-0.37067607,-0.37067607]},{"bufferView":10,"componentType":5126,"count":1008,"type":"VEC3","byteOffset":12},{"bufferView":10,"componentType":5126,"count":1008,"type":"VEC4","byteOffset":24},{"bufferView":10,"componentType":5126,"count":1008,"type":"VEC2","byteOffset":40},{"bufferView":4,"componentType":5123,"count":1740,"type":"SCALAR"},{"bufferView":11,"componentType":5126,"count":1008,"type":"VEC3","max":[0.132642359,0.37067607,0.3706761],"min":[-0.148270518,-0.37067607,-0.3706761]},{"bufferView":11,"componentType":5126,"count":1008,"type":"VEC3","byteOffset":12},{"bufferView":11,"componentType":5126,"count":1008,"type":"VEC4","byteOffset":24},{"bufferView":11,"componentType":5126,"count":1008,"type":"VEC2","byteOffset":40},{"bufferView":5,"componentType":5123,"count":1740,"type":"SCALAR"}],"images":[{"name":"AFRC_Tex_Col1.jpg","uri":"AFRC_Tex_Col1.jpg","mimeType":"image/jpeg"},{"name":"AFRC_Tex_Col1ORM.jpg","uri":"AFRC_Tex_Col1ORM.jpg","mimeType":"image/jpeg"},{"name":"AFRC_Tex_Emission.png","uri":"AFRC_Tex_Emission.png","mimeType":"image/png"}],"materials":[{"name":"AFRC_Mat_Col1","pbrMetallicRoughness":{"metallicFactor":0.075,"roughnessFactor":0.543,"baseColorTexture":{"index":0},"metallicRoughnessTexture":{"index":1}}},{"name":"AFRC_Emission","pbrMetallicRoughness":{"metallicFactor":0,"baseColorTexture":{"index":2}},"emissiveTexture":{"index":2},"emissiveFactor":[1,1,1]}],"meshes":[{"name":"Body","primitives":[{"attributes":{"POSITION":0,"NORMAL":1,"TANGENT":2,"TEXCOORD_0":3},"indices":4,"material":0},{"attributes":{"POSITION":0,"NORMAL":1,"TANGENT":2,"TEXCOORD_0":3},"indices":5,"material":1}]},{"name":"Spoiler","primitives":[{"attributes":{"POSITION":6,"NORMAL":7,"TANGENT":8,"TEXCOORD_0":9},"indices":10,"material":0}]},{"name":"FrontLeftWheel","primitives":[{"attributes":{"POSITION":11,"NORMAL":12,"TANGENT":13,"TEXCOORD_0":14},"indices":15,"material":0}]},{"name":"FrontRightWheel","primitives":[{"attributes":{"POSITION":16,"NORMAL":17,"TANGENT":18,"TEXCOORD_0":19},"indices":20,"material":0}]},{"name":"RearLeftWheel","primitives":[{"attributes":{"POSITION":21,"NORMAL":22,"TANGENT":23,"TEXCOORD_0":24},"indices":25,"material":0}]},{"name":"RearRightWheel","primitives":[{"attributes":{"POSITION":26,"NORMAL":27,"TANGENT":28,"TEXCOORD_0":29},"indices":30,"material":0}]}],"samplers":[{"magFilter":9728,"minFilter":9728}],"scene":0,"scenes":[{"name":"Free Racing Car","nodes":[13]}],"textures":[{"source":0,"sampler":0},{"source":1,"sampler":0},{"source":2,"sampler":0}]}